<svg xmlns="http://www.w3.org/2000/svg" width="100" height="100" viewBox="4857 1955 100 100"><path fill="#7F7F7F" fill-rule="evenodd" d="M4955.17 2044.332l-19.417-19.416c5.47-7.306 8.747-16.34 8.747-26.166 0-24.164-19.586-43.75-43.75-43.75s-43.75 19.586-43.75 43.75c0 24.165 19.586 43.75 43.75 43.75 9.827 0 18.866-3.277 26.172-8.746l19.41 19.416c2.44 2.44 6.396 2.44 8.837 0 2.44-2.44 2.44-6.397 0-8.838zm-54.42-14.33c-17.26 0-31.25-13.99-31.25-31.252 0-17.26 13.99-31.25 31.25-31.25 17.26 0 31.25 13.99 31.25 31.25 0 17.26-13.99 31.25-31.25 31.25z"/></svg>