<svg xmlns="http://www.w3.org/2000/svg" viewBox="6368 5696 56 60"><path fill="#48B1DA" fill-rule="evenodd" d="M6390.393 5709.992c-2.233-1.992-3.726-3.72-3.726-6.492 0-4.142 3.343-7.5 7.466-7.5 2.14 0 4.072.905 5.434 2.355l21.295 21.533c1.9 1.36 3.138 3.59 3.138 6.112 0 2.493-1.21 4.702-3.074 6.066l-21.36 21.58c-1.36 1.45-3.292 2.354-5.433 2.354-4.123 0-7.466-3.358-7.466-7.5 0-2.773 1.493-4.5 3.726-6.492l8.317-8.508h-23.312c-4.086 0-7.398-3.33-7.398-7.5 0-4.142 3.367-7.5 7.398-7.5h23.312l-8.317-8.508z"/></svg>