<svg xmlns="http://www.w3.org/2000/svg" viewBox="258 1583 32 32"><path fill="#7F7F7F" fill-rule="evenodd" d="M276.496 1592.07c0-.36-.28-.64-.642-.64h-1.286c-.362 0-.643.28-.643.64v7.073h-4.5c-.362 0-.643.28-.643.643v1.285c0 .363.28.644.643.644h6.43c.36 0 .64-.28.64-.643v-9zm8.358 7.073c0 6.027-4.902 10.928-10.93 10.928-6.026 0-10.928-4.9-10.928-10.927 0-6.027 4.902-10.93 10.93-10.93 6.026 0 10.928 4.903 10.928 10.93zm4.5 0c0-8.518-6.91-15.43-15.43-15.43-8.517 0-15.428 6.912-15.428 15.43s6.91 15.428 15.43 15.428c8.517 0 15.428-6.91 15.428-15.427z"/></svg>